<svg width="18" height="30" viewBox="0 0 18 30" fill="none" xmlns="http://www.w3.org/2000/svg">
<path d="M10.5176 30H5.71335C4.91089 30 4.25812 29.3472 4.25812 28.5448V17.7086H1.45523C0.652771 17.7086 0 17.0556 0 16.2534V11.61C0 10.8076 0.652771 10.1548 1.45523 10.1548H4.25812V7.82959C4.25812 5.52406 4.98207 3.56255 6.35147 2.15744C7.72705 0.745926 9.64943 0 11.9108 0L15.5747 0.0059509C16.3758 0.00732422 17.0274 0.660095 17.0274 1.46118V5.7724C17.0274 6.57486 16.3749 7.22763 15.5727 7.22763L13.1058 7.22855C12.3534 7.22855 12.1619 7.37938 12.1209 7.42561C12.0534 7.50229 11.973 7.71904 11.973 8.31757V10.1546H15.3873C15.6443 10.1546 15.8933 10.218 16.1073 10.3374C16.569 10.5954 16.856 11.0831 16.856 11.6103L16.8542 16.2536C16.8542 17.0556 16.2014 17.7084 15.3989 17.7084H11.973V28.5448C11.973 29.3472 11.32 30 10.5176 30ZM6.01685 28.2413H10.2141V16.9212C10.2141 16.3854 10.6501 15.9496 11.1857 15.9496H15.0954L15.097 11.9135H11.1855C10.6499 11.9135 10.2141 11.4777 10.2141 10.9419V8.31757C10.2141 7.63046 10.2839 6.84906 10.8025 6.26175C11.4292 5.55176 12.4168 5.46982 13.1053 5.46982L15.2687 5.4689V1.76422L11.9094 1.75873C8.27522 1.75873 6.01685 4.08508 6.01685 7.82959V10.9419C6.01685 11.4775 5.58105 11.9135 5.04547 11.9135H1.75873V15.9496H5.04547C5.58105 15.9496 6.01685 16.3854 6.01685 16.9212V28.2413Z" fill="white"/>
</svg>
