<svg width="60" height="60" viewBox="0 0 60 60" fill="none" xmlns="http://www.w3.org/2000/svg">
<path d="M35.9008 28.228L27.1503 23.4402C26.6472 23.1649 26.0525 23.1752 25.5593 23.4674C25.0658 23.7599 24.7715 24.2766 24.7715 24.8502V34.3437C24.7715 34.9145 25.064 35.4304 25.5542 35.7232C25.8101 35.8761 26.0939 35.9529 26.3782 35.9529C26.6387 35.9529 26.8998 35.8885 27.14 35.7592L35.8908 31.0538C36.4102 30.7743 36.7345 30.2343 36.7369 29.6441C36.739 29.0539 36.4187 28.5115 35.9008 28.228ZM27.0926 33.1495V26.0541L33.6325 29.6326L27.0926 33.1495Z" fill="#3AEEBD"/>
<path d="M57.9455 19.0891C55.4212 12.6237 50.7332 7.23368 44.6804 3.8373C38.6275 0.440921 31.5842 -0.751634 24.7506 0.462833C17.9171 1.6773 11.716 5.22365 7.20401 10.4976C2.69203 15.7716 0.148316 22.4469 0.00628231 29.3861C-0.135752 36.3253 2.13268 43.0991 6.42508 48.5532C10.7175 54.0074 16.7682 57.8046 23.5464 59.2976C30.3246 60.7907 37.4107 59.8874 43.5975 56.7415C49.7843 53.5956 54.6889 48.4019 57.4756 42.0453L56.7346 41.7204C54.023 47.9056 49.2507 52.9593 43.2308 56.0203C37.2109 59.0813 30.3158 59.9603 23.7204 58.5075C17.1251 57.0546 11.2375 53.3599 7.0609 48.0529C2.88428 42.7458 0.677022 36.1547 0.815225 29.4026C0.953429 22.6506 3.42854 16.1553 7.81883 11.0236C12.2091 5.89188 18.2429 2.44118 24.8922 1.25946C31.5415 0.0777505 38.3948 1.23814 44.2844 4.54292C50.1741 7.8477 54.7356 13.0924 57.1918 19.3834L57.9455 19.0891Z" fill="#3AEEBD"/>
<path d="M49.3171 22.0806L49.3152 22.0624C49.2817 21.7436 48.9478 18.9079 47.5692 17.4656C45.9758 15.7691 44.1693 15.563 43.3005 15.4642C43.2286 15.456 43.1627 15.4484 43.1038 15.4406L43.0346 15.4333C37.7983 15.0526 29.8903 15.0006 29.8111 15.0003L29.8042 15L29.7972 15.0003C29.7181 15.0006 21.8101 15.0526 16.5267 15.4333L16.4568 15.4406C16.4006 15.4481 16.3387 15.4551 16.2713 15.463C15.4125 15.5621 13.6253 15.7685 12.0274 17.5263C10.7144 18.9532 10.3348 21.7282 10.2958 22.0401L10.2913 22.0806C10.2795 22.2132 10 25.3714 10 28.5419V31.5058C10 34.6764 10.2795 37.8345 10.2913 37.9675L10.2934 37.9874C10.327 38.3011 10.6606 41.0849 12.0328 42.5278C13.5311 44.1675 15.4255 44.3844 16.4445 44.5011C16.6055 44.5195 16.7442 44.5352 16.8388 44.5519L16.9304 44.5645C19.9538 44.8522 29.4331 44.994 29.835 44.9997L29.8471 45L29.8592 44.9997C29.9384 44.9994 37.846 44.9474 43.0823 44.5667L43.1515 44.5594C43.2177 44.5506 43.292 44.5428 43.3736 44.5343C44.2276 44.4437 46.0051 44.2554 47.581 42.5215C48.894 41.0942 49.2738 38.3192 49.3125 38.0077L49.3171 37.9672C49.3288 37.8342 49.6087 34.6764 49.6087 31.5058V28.5419C49.6084 25.3714 49.3288 22.2135 49.3171 22.0806ZM47.2873 31.5058C47.2873 34.4403 47.031 37.4625 47.0068 37.7399C46.9083 38.5042 46.5079 40.2599 45.8682 40.9552C44.8818 42.0404 43.8686 42.148 43.1289 42.2262C43.0394 42.2356 42.9566 42.2447 42.8817 42.254C37.817 42.6203 30.2076 42.6765 29.8571 42.6786C29.4639 42.6729 20.1233 42.5299 17.1921 42.2576C17.0419 42.2332 16.8796 42.2144 16.7086 42.1951C15.841 42.0957 14.6534 41.9597 13.7402 40.9552L13.7187 40.9322C13.0902 40.2774 12.7013 38.6356 12.6024 37.749C12.584 37.5393 12.3211 34.4814 12.3211 31.5058V28.5419C12.3211 25.6107 12.5768 22.5919 12.6015 22.3087C12.7191 21.4085 13.127 19.7592 13.7402 19.0925C14.7567 17.9744 15.8286 17.8505 16.5375 17.7686C16.6052 17.7608 16.6684 17.7535 16.7267 17.746C21.8651 17.3779 29.5292 17.3232 29.8042 17.3211C30.0792 17.3229 37.7405 17.3779 42.8333 17.746C42.8959 17.7538 42.9642 17.7617 43.0376 17.7702C43.7668 17.8533 44.8689 17.979 45.8803 19.0578L45.8896 19.0678C46.5182 19.7226 46.9071 21.3931 47.0059 22.2975C47.0234 22.4955 47.2873 25.56 47.2873 28.5419V31.5058Z" fill="#3AEEBD"/>
</svg>
