<svg width="90" height="90" viewBox="0 0 90 90" fill="none" xmlns="http://www.w3.org/2000/svg">
<rect x="10" y="10" width="70" height="70" rx="35" fill="#3BEEB7"/>
<path d="M86.9183 28.6336C83.1318 18.9356 76.0999 10.8505 67.0206 5.75595C57.9412 0.661382 47.3763 -1.12745 37.126 0.69425C26.8756 2.51595 17.574 7.83547 10.806 15.7464C4.03805 23.6574 0.222474 33.6703 0.00942346 44.0791C-0.203627 54.4879 3.19903 64.6486 9.63761 72.8299C16.0762 81.0111 25.1523 86.7068 35.3196 88.9464C45.4868 91.1861 56.1161 89.831 65.3963 85.1123C74.6764 80.3935 82.0334 72.6029 86.2135 63.0679L85.1019 62.5806C81.0345 71.8584 73.8761 79.4389 64.8462 84.0304C55.8163 88.6219 45.4737 89.9404 35.5807 87.7612C25.6876 85.582 16.8563 80.0399 10.5914 72.0793C4.32642 64.1187 1.01553 54.232 1.22284 44.104C1.43014 33.9759 5.14281 24.233 11.7282 16.5354C18.3137 8.83781 27.3644 3.66176 37.3383 1.88919C47.3122 0.116626 57.5922 1.85721 66.4267 6.81438C75.2611 11.7716 82.1034 19.6386 85.7877 29.075L86.9183 28.6336Z" fill="#3AEEBD"/>
<path d="M51.8361 42.4073L39.5715 35.3214C39.2209 35.114 38.8217 35.0031 38.4143 35C37.774 35 37.1599 35.2544 36.7071 35.7071C36.2544 36.1599 36 36.774 36 37.4143V52.6218C36.0001 53.0468 36.114 53.4639 36.3299 53.8299C36.5458 54.1959 36.8558 54.4974 37.2276 54.703C37.5995 54.9086 38.0196 55.0108 38.4444 54.9991C38.8692 54.9873 39.283 54.862 39.6429 54.6362L51.9218 46.8788C52.3036 46.6399 52.617 46.3061 52.8314 45.9101C53.0458 45.514 53.154 45.0691 53.1454 44.6188C53.1367 44.1685 53.0116 43.7281 52.7821 43.3405C52.5527 42.953 52.2267 42.6314 51.8361 42.4073Z" fill="white"/>
</svg>
